<svg width="1418" height="2" viewBox="0 0 1418 2" fill="none" xmlns="http://www.w3.org/2000/svg">
<mask id="path-1-inside-1" fill="white">
<path fill-rule="evenodd" clip-rule="evenodd" d="M0.56484 1.99918V-0.00088799H1417.91V1.99918H0.56484Z"/>
</mask>
<path fill-rule="evenodd" clip-rule="evenodd" d="M0.56484 1.99918V-0.00088799H1417.91V1.99918H0.56484Z" fill="#F5F5F5"/>
<path d="M0.56484 1.99918H-2.43516V4.99918H0.56484V1.99918ZM0.56484 -0.00088799V-3.00089H-2.43516V-0.00088799H0.56484ZM1417.91 -0.00088799H1420.91V-3.00089H1417.91V-0.00088799ZM1417.91 1.99918V4.99918H1420.91V1.99918H1417.91ZM3.56484 1.99918V-0.00088799H-2.43516V1.99918H3.56484ZM0.56484 2.99911H1417.91V-3.00089H0.56484V2.99911ZM1414.91 -0.00088799V1.99918H1420.91V-0.00088799H1414.91ZM1417.91 -1.00082H0.56484V4.99918H1417.91V-1.00082Z" fill="#FFCF00" mask="url(#path-1-inside-1)"/>
</svg>
