<svg width="422" height="182" viewBox="0 0 422 182" fill="none" xmlns="http://www.w3.org/2000/svg">
<path d="M245.527 15.0238H261.803C266.029 15.0238 269.76 15.8805 272.997 17.5937C276.233 19.2689 278.745 21.6294 280.535 24.6752C282.324 27.6829 283.219 31.1285 283.219 35.0119C283.219 38.8953 282.324 42.3599 280.535 45.4057C278.745 48.4134 276.233 50.7739 272.997 52.4872C269.76 54.1624 266.029 55 261.803 55H245.527V15.0238ZM261.575 51.345C265.077 51.345 268.142 50.6597 270.769 49.2891C273.396 47.8804 275.433 45.9578 276.88 43.5211C278.327 41.0464 279.05 38.21 279.05 35.0119C279.05 31.8138 278.327 28.9964 276.88 26.5598C275.433 24.0851 273.396 22.1624 270.769 20.7918C268.142 19.3831 265.077 18.6788 261.575 18.6788H249.753V51.345H261.575ZM239.474 32.956H261.632V36.3254H239.474V32.956ZM324.096 51.345V55H295.827V15.0238H323.239V18.6788H300.053V32.8989H320.727V36.4967H300.053V51.345H324.096ZM315.13 11.7686L309.59 8.3992L304.051 11.7686H300.167L307.592 6.40039H311.589L319.013 11.7686H315.13ZM309.933 0.746613H314.902L321.755 6.97148H318.214L309.933 0.746613ZM367.619 55.3427C364.535 55.3427 361.775 54.5241 359.338 52.887C356.94 51.2499 355.055 48.9084 353.684 45.8626C352.352 42.7787 351.686 39.1618 351.686 35.0119C351.686 30.862 352.352 27.2641 353.684 24.2183C355.055 21.1345 356.94 18.774 359.338 17.1368C361.775 15.4997 364.535 14.6812 367.619 14.6812C370.703 14.6812 373.444 15.4997 375.843 17.1368C378.279 18.774 380.183 21.1345 381.553 24.2183C382.924 27.2641 383.609 30.862 383.609 35.0119C383.609 39.1618 382.924 42.7787 381.553 45.8626C380.183 48.9084 378.279 51.2499 375.843 52.887C373.444 54.5241 370.703 55.3427 367.619 55.3427ZM367.619 51.5735C369.941 51.5735 371.978 50.9262 373.73 49.6318C375.519 48.3373 376.909 46.4527 377.899 43.978C378.888 41.5033 379.383 38.5146 379.383 35.0119C379.383 31.5092 378.888 28.5205 377.899 26.0458C376.909 23.5711 375.519 21.6865 373.73 20.3921C371.978 19.0976 369.941 18.4503 367.619 18.4503C365.297 18.4503 363.241 19.0976 361.451 20.3921C359.7 21.6865 358.329 23.5711 357.339 26.0458C356.349 28.5205 355.855 31.5092 355.855 35.0119C355.855 38.5146 356.349 41.5033 357.339 43.978C358.329 46.4527 359.7 48.3373 361.451 49.6318C363.241 50.9262 365.297 51.5735 367.619 51.5735ZM419.809 51.345V55H391.769V52.0874L408.388 35.8114C410.482 33.7555 411.89 31.9851 412.614 30.5003C413.375 28.9774 413.756 27.4545 413.756 25.9316C413.756 23.5711 412.937 21.7436 411.3 20.4492C409.701 19.1166 407.398 18.4503 404.39 18.4503C399.707 18.4503 396.071 19.9352 393.482 22.9048L390.57 20.3921C392.131 18.5646 394.11 17.1559 396.509 16.166C398.946 15.1761 401.687 14.6812 404.733 14.6812C408.806 14.6812 412.024 15.652 414.384 17.5937C416.783 19.4973 417.982 22.1244 417.982 25.4747C417.982 27.5307 417.525 29.5104 416.611 31.4141C415.698 33.3177 413.965 35.5069 411.414 37.9816L397.822 51.345H419.809ZM121.356 91.0238C125.049 91.0238 128.267 91.633 131.008 92.8513C133.749 94.0696 135.862 95.821 137.347 98.1053C138.832 100.39 139.574 103.055 139.574 106.101C139.574 109.146 138.832 111.811 137.347 114.096C135.862 116.38 133.749 118.131 131.008 119.35C128.267 120.568 125.049 121.177 121.356 121.177H115.588V131H102.111V91.0238H121.356ZM120.5 110.783C122.327 110.783 123.698 110.384 124.612 109.584C125.525 108.747 125.982 107.585 125.982 106.101C125.982 104.616 125.525 103.474 124.612 102.674C123.698 101.836 122.327 101.418 120.5 101.418H115.588V110.783H120.5ZM164.252 120.949H160.597V131H147.119V91.0238H166.365C170.058 91.0238 173.275 91.633 176.016 92.8513C178.758 94.0696 180.871 95.821 182.355 98.1053C183.84 100.39 184.583 103.055 184.583 106.101C184.583 108.956 183.935 111.45 182.641 113.582C181.346 115.714 179.481 117.408 177.044 118.664L185.439 131H171.048L164.252 120.949ZM170.991 106.101C170.991 104.616 170.534 103.474 169.62 102.674C168.706 101.836 167.336 101.418 165.508 101.418H160.597V110.783H165.508C167.336 110.783 168.706 110.384 169.62 109.584C170.534 108.747 170.991 107.585 170.991 106.101ZM213.756 131.914C209.454 131.914 205.589 131.019 202.163 129.23C198.736 127.44 196.052 124.966 194.111 121.805C192.169 118.607 191.198 115.01 191.198 111.012C191.198 107.014 192.169 103.435 194.111 100.275C196.052 97.0774 198.736 94.5836 202.163 92.7942C205.589 91.0048 209.454 90.1101 213.756 90.1101C218.058 90.1101 221.922 91.0048 225.349 92.7942C228.776 94.5836 231.46 97.0774 233.401 100.275C235.343 103.435 236.314 107.014 236.314 111.012C236.314 115.01 235.343 118.607 233.401 121.805C231.46 124.966 228.776 127.44 225.349 129.23C221.922 131.019 218.058 131.914 213.756 131.914ZM213.756 121.006C215.431 121.006 216.935 120.606 218.268 119.807C219.638 118.969 220.723 117.808 221.523 116.323C222.322 114.8 222.722 113.03 222.722 111.012C222.722 108.994 222.322 107.243 221.523 105.758C220.723 104.235 219.638 103.074 218.268 102.274C216.935 101.437 215.431 101.018 213.756 101.018C212.081 101.018 210.558 101.437 209.187 102.274C207.855 103.074 206.789 104.235 205.989 105.758C205.19 107.243 204.79 108.994 204.79 111.012C204.79 113.03 205.19 114.8 205.989 116.323C206.789 117.808 207.855 118.969 209.187 119.807C210.558 120.606 212.081 121.006 213.756 121.006ZM244.331 91.0238H264.033C268.488 91.0238 272.409 91.8424 275.798 93.4795C279.224 95.0785 281.87 97.3819 283.736 100.39C285.639 103.397 286.591 106.938 286.591 111.012C286.591 115.086 285.639 118.626 283.736 121.634C281.87 124.642 279.224 126.964 275.798 128.601C272.409 130.2 268.488 131 264.033 131H244.331V91.0238ZM263.462 120.492C266.356 120.492 268.659 119.673 270.372 118.036C272.124 116.361 272.999 114.02 272.999 111.012C272.999 108.004 272.124 105.682 270.372 104.045C268.659 102.369 266.356 101.532 263.462 101.532H257.808V120.492H263.462ZM313.769 131.914C307.639 131.914 302.861 130.258 299.434 126.945C296.008 123.633 294.295 118.988 294.295 113.011V91.0238H307.772V112.611C307.772 115.543 308.286 117.675 309.314 119.007C310.38 120.34 311.903 121.006 313.883 121.006C315.863 121.006 317.367 120.34 318.395 119.007C319.461 117.675 319.994 115.543 319.994 112.611V91.0238H333.243V113.011C333.243 118.988 331.53 123.633 328.103 126.945C324.677 130.258 319.898 131.914 313.769 131.914ZM363.219 131.914C358.993 131.914 355.186 131.038 351.798 129.287C348.409 127.497 345.744 125.023 343.802 121.863C341.899 118.664 340.947 115.048 340.947 111.012C340.947 106.976 341.899 103.378 343.802 100.218C345.744 97.0202 348.409 94.5455 351.798 92.7942C355.186 91.0048 358.993 90.1101 363.219 90.1101C367.103 90.1101 370.567 90.7954 373.613 92.166C376.659 93.5366 379.172 95.5164 381.151 98.1053L372.642 105.701C370.168 102.579 367.255 101.018 363.905 101.018C361.087 101.018 358.822 101.932 357.109 103.759C355.395 105.548 354.539 107.966 354.539 111.012C354.539 114.058 355.395 116.494 357.109 118.322C358.822 120.111 361.087 121.006 363.905 121.006C367.255 121.006 370.168 119.445 372.642 116.323L381.151 123.919C379.172 126.507 376.659 128.487 373.613 129.858C370.567 131.228 367.103 131.914 363.219 131.914ZM396.57 101.475H384.862V91.0238H421.755V101.475H410.047V131H396.57V101.475ZM0.156937 141.024H13.6346V181H0.156937V141.024ZM62.6528 141.024V181H51.5737L36.3827 162.839V181H23.2477V141.024H34.3268L49.5178 159.184V141.024H62.6528ZM111.677 141.024V181H100.598L85.4067 162.839V181H72.2717V141.024H83.3508L98.5418 159.184V141.024H111.677ZM142.255 181.914C137.952 181.914 134.088 181.019 130.662 179.23C127.235 177.44 124.551 174.966 122.609 171.805C120.668 168.607 119.697 165.01 119.697 161.012C119.697 157.014 120.668 153.435 122.609 150.275C124.551 147.077 127.235 144.584 130.662 142.794C134.088 141.005 137.952 140.11 142.255 140.11C146.557 140.11 150.421 141.005 153.848 142.794C157.274 144.584 159.958 147.077 161.9 150.275C163.842 153.435 164.813 157.014 164.813 161.012C164.813 165.01 163.842 168.607 161.9 171.805C159.958 174.966 157.274 177.44 153.848 179.23C150.421 181.019 146.557 181.914 142.255 181.914ZM142.255 171.006C143.93 171.006 145.434 170.606 146.766 169.807C148.137 168.969 149.222 167.808 150.021 166.323C150.821 164.8 151.221 163.03 151.221 161.012C151.221 158.994 150.821 157.243 150.021 155.758C149.222 154.235 148.137 153.074 146.766 152.274C145.434 151.437 143.93 151.018 142.255 151.018C140.579 151.018 139.057 151.437 137.686 152.274C136.353 153.074 135.287 154.235 134.488 155.758C133.688 157.243 133.289 158.994 133.289 161.012C133.289 163.03 133.688 164.8 134.488 166.323C135.287 167.808 136.353 168.969 137.686 169.807C139.057 170.606 140.579 171.006 142.255 171.006ZM214.097 141.024L197.193 181H183.943L167.039 141.024H181.545L191.082 164.381L200.847 141.024H214.097ZM244.354 174.033H229.163L226.479 181H212.773L230.248 141.024H243.497L260.972 181H247.038L244.354 174.033ZM240.642 164.324L236.758 154.273L232.875 164.324H240.642ZM272.921 151.475H261.214V141.024H298.106V151.475H286.399V181H272.921V151.475ZM304.732 141.024H318.209V181H304.732V141.024ZM348.781 181.914C344.479 181.914 340.615 181.019 337.188 179.23C333.762 177.44 331.078 174.966 329.136 171.805C327.194 168.607 326.224 165.01 326.224 161.012C326.224 157.014 327.194 153.435 329.136 150.275C331.078 147.077 333.762 144.584 337.188 142.794C340.615 141.005 344.479 140.11 348.781 140.11C353.084 140.11 356.948 141.005 360.375 142.794C363.801 144.584 366.485 147.077 368.427 150.275C370.369 153.435 371.339 157.014 371.339 161.012C371.339 165.01 370.369 168.607 368.427 171.805C366.485 174.966 363.801 177.44 360.375 179.23C356.948 181.019 353.084 181.914 348.781 181.914ZM348.781 171.006C350.457 171.006 351.961 170.606 353.293 169.807C354.664 168.969 355.749 167.808 356.548 166.323C357.348 164.8 357.748 163.03 357.748 161.012C357.748 158.994 357.348 157.243 356.548 155.758C355.749 154.235 354.664 153.074 353.293 152.274C351.961 151.437 350.457 151.018 348.781 151.018C347.106 151.018 345.583 151.437 344.213 152.274C342.88 153.074 341.814 154.235 341.015 155.758C340.215 157.243 339.815 158.994 339.815 161.012C339.815 163.03 340.215 164.8 341.015 166.323C341.814 167.808 342.88 168.969 344.213 169.807C345.583 170.606 347.106 171.006 348.781 171.006ZM418.761 141.024V181H407.682L392.491 162.839V181H379.356V141.024H390.435L405.626 159.184V141.024H418.761Z" fill="#FFCF00"/>
</svg>
